<svg width="400" height="175" viewBox="0 0 400 175" class="keymap" xmlns="http://www.w3.org/2000/svg" xmlns:xlink="http://www.w3.org/1999/xlink">
<style>/* inherit to force styles through use tags */
svg path {
    fill: inherit;
}

/* font and background color specifications */
svg.keymap {
    font-family: SFMono-Regular,Consolas,Liberation Mono,Menlo,monospace;
    font-size: 14px;
    font-kerning: normal;
    text-rendering: optimizeLegibility;
    fill: #24292e;
}

/* default key styling */
rect.key {
    fill: #f6f8fa;
}

rect.key, rect.combo {
    stroke: #c9cccf;
    stroke-width: 1;
}

/* default key side styling, only used is draw_key_sides is set */
rect.side {
    filter: brightness(90%);
}

/* color accent for combo boxes */
rect.combo, rect.combo-separate {
    fill: #cdf;
}

/* color accent for held keys */
rect.held, rect.combo.held {
    fill: #fdd;
}

/* color accent for ghost (optional) keys */
rect.ghost, rect.combo.ghost {
    stroke-dasharray: 4, 4;
    stroke-width: 2;
}

text {
    text-anchor: middle;
    dominant-baseline: middle;
}

/* styling for layer labels */
text.label {
    font-weight: bold;
    text-anchor: start;
    stroke: white;
    stroke-width: 4;
    paint-order: stroke;
}

/* styling for optional footer */
text.footer {
    text-anchor: end;
    dominant-baseline: auto;
    stroke: white;
    stroke-width: 4;
    paint-order: stroke;
}

/* styling for combo tap, and key non-tap label text */
text.combo, text.hold, text.shifted, text.left, text.right {
    font-size: 11px;
}

text.hold {
    text-anchor: middle;
    dominant-baseline: auto;
}

text.shifted {
    text-anchor: middle;
    dominant-baseline: hanging;
}

text.left {
    text-anchor: start;
}

text.right {
    text-anchor: end;
}

text.layer-activator {
    text-decoration: underline;
}

/* styling for hold/shifted label text in combo box */
text.combo.hold, text.combo.shifted, text.combo.left, text.combo.right {
    font-size: 8px;
}

/* lighter symbol for transparent keys */
text.trans {
    fill: #7b7e81;
}

/* styling for combo dendrons */
path.combo {
    stroke-width: 1;
    stroke: gray;
    fill: none;
}

/* Start Tabler Icons Cleanup */
/* cannot use height/width with glyphs */
.icon-tabler > path {
    fill: inherit;
    stroke: inherit;
    stroke-width: 2;
}
/* hide tabler's default box */
.icon-tabler > path[stroke="none"][fill="none"] {
    visibility: hidden;
}
/* End Tabler Icons Cleanup */

@media (prefers-color-scheme: dark) {
svg.keymap { fill: #d1d6db; }
rect.key { fill: #3f4750; }
rect.key, rect.combo { stroke: #60666c; }
rect.combo, rect.combo-separate { fill: #1f3d7a; }
rect.held, rect.combo.held { fill: #854747; }
text.label, text.footer { stroke: black; }
text.trans { fill: #7e8184; }
path.combo { stroke: #7f7f7f; }

}</style>

<g transform="translate(14, -48)">
<g transform="translate(14, 72)" class="key held keypos-1">
<rect rx="6" ry="6" x="-12" y="-12" width="24" height="24" class="key held"/>
</g>
<g transform="translate(42, 72)" class="key keypos-2">
<rect rx="6" ry="6" x="-12" y="-12" width="24" height="24" class="key"/>
</g>
<g transform="translate(70, 72)" class="key keypos-3">
<rect rx="6" ry="6" x="-12" y="-12" width="24" height="24" class="key"/>
</g>
<g transform="translate(98, 72)" class="key keypos-4">
<rect rx="6" ry="6" x="-12" y="-12" width="24" height="24" class="key"/>
</g>
<g transform="translate(126, 72)" class="key keypos-5">
<rect rx="6" ry="6" x="-12" y="-12" width="24" height="24" class="key"/>
</g>
<g transform="translate(154, 72)" class="key keypos-6">
<rect rx="6" ry="6" x="-12" y="-12" width="24" height="24" class="key"/>
</g>
<g transform="translate(219, 72)" class="key keypos-7">
<rect rx="6" ry="6" x="-12" y="-12" width="24" height="24" class="key"/>
</g>
<g transform="translate(247, 72)" class="key keypos-8">
<rect rx="6" ry="6" x="-12" y="-12" width="24" height="24" class="key"/>
</g>
<g transform="translate(275, 72)" class="key keypos-9">
<rect rx="6" ry="6" x="-12" y="-12" width="24" height="24" class="key"/>
</g>
<g transform="translate(303, 72)" class="key keypos-10">
<rect rx="6" ry="6" x="-12" y="-12" width="24" height="24" class="key"/>
</g>
<g transform="translate(331, 72)" class="key keypos-11">
<rect rx="6" ry="6" x="-12" y="-12" width="24" height="24" class="key"/>
</g>
<g transform="translate(359, 72)" class="key held keypos-12">
<rect rx="6" ry="6" x="-12" y="-12" width="24" height="24" class="key held"/>
</g>
<g transform="translate(14, 100)" class="key keypos-13">
<rect rx="6" ry="6" x="-12" y="-12" width="24" height="24" class="key"/>
</g>
<g transform="translate(42, 100)" class="key keypos-14">
<rect rx="6" ry="6" x="-12" y="-12" width="24" height="24" class="key"/>
</g>
<g transform="translate(70, 100)" class="key keypos-15">
<rect rx="6" ry="6" x="-12" y="-12" width="24" height="24" class="key"/>
</g>
<g transform="translate(98, 100)" class="key keypos-16">
<rect rx="6" ry="6" x="-12" y="-12" width="24" height="24" class="key"/>
</g>
<g transform="translate(126, 100)" class="key keypos-17">
<rect rx="6" ry="6" x="-12" y="-12" width="24" height="24" class="key"/>
</g>
<g transform="translate(154, 100)" class="key keypos-18">
<rect rx="6" ry="6" x="-12" y="-12" width="24" height="24" class="key"/>
</g>
<g transform="translate(219, 100)" class="key keypos-19">
<rect rx="6" ry="6" x="-12" y="-12" width="24" height="24" class="key"/>
</g>
<g transform="translate(247, 100)" class="key keypos-20">
<rect rx="6" ry="6" x="-12" y="-12" width="24" height="24" class="key"/>
</g>
<g transform="translate(275, 100)" class="key keypos-21">
<rect rx="6" ry="6" x="-12" y="-12" width="24" height="24" class="key"/>
</g>
<g transform="translate(303, 100)" class="key keypos-22">
<rect rx="6" ry="6" x="-12" y="-12" width="24" height="24" class="key"/>
</g>
<g transform="translate(331, 100)" class="key keypos-23">
<rect rx="6" ry="6" x="-12" y="-12" width="24" height="24" class="key"/>
</g>
<g transform="translate(359, 100)" class="key keypos-24">
<rect rx="6" ry="6" x="-12" y="-12" width="24" height="24" class="key"/>
</g>
<g transform="translate(14, 128)" class="key keypos-25">
<rect rx="6" ry="6" x="-12" y="-12" width="24" height="24" class="key"/>
</g>
<g transform="translate(42, 128)" class="key keypos-26">
<rect rx="6" ry="6" x="-12" y="-12" width="24" height="24" class="key"/>
</g>
<g transform="translate(70, 128)" class="key keypos-27">
<rect rx="6" ry="6" x="-12" y="-12" width="24" height="24" class="key"/>
</g>
<g transform="translate(98, 128)" class="key keypos-28">
<rect rx="6" ry="6" x="-12" y="-12" width="24" height="24" class="key"/>
</g>
<g transform="translate(126, 128)" class="key keypos-29">
<rect rx="6" ry="6" x="-12" y="-12" width="24" height="24" class="key"/>
</g>
<g transform="translate(154, 128)" class="key keypos-30">
<rect rx="6" ry="6" x="-12" y="-12" width="24" height="24" class="key"/>
</g>
<g transform="translate(219, 128)" class="key keypos-31">
<rect rx="6" ry="6" x="-12" y="-12" width="24" height="24" class="key"/>
</g>
<g transform="translate(247, 128)" class="key keypos-32">
<rect rx="6" ry="6" x="-12" y="-12" width="24" height="24" class="key"/>
</g>
<g transform="translate(275, 128)" class="key keypos-33">
<rect rx="6" ry="6" x="-12" y="-12" width="24" height="24" class="key"/>
</g>
<g transform="translate(303, 128)" class="key keypos-34">
<rect rx="6" ry="6" x="-12" y="-12" width="24" height="24" class="key"/>
</g>
<g transform="translate(331, 128)" class="key keypos-35">
<rect rx="6" ry="6" x="-12" y="-12" width="24" height="24" class="key"/>
</g>
<g transform="translate(359, 128)" class="key keypos-36">
<rect rx="6" ry="6" x="-12" y="-12" width="24" height="24" class="key"/>
</g>
<g transform="translate(14, 156)" class="key held keypos-37">
<rect rx="6" ry="6" x="-12" y="-12" width="24" height="24" class="key held"/>
</g>
<g transform="translate(42, 156)" class="key keypos-38">
<rect rx="6" ry="6" x="-12" y="-12" width="24" height="24" class="key"/>
</g>
<g transform="translate(70, 156)" class="key keypos-39">
<rect rx="6" ry="6" x="-12" y="-12" width="24" height="24" class="key"/>
</g>
<g transform="translate(98, 156)" class="key keypos-40">
<rect rx="6" ry="6" x="-12" y="-12" width="24" height="24" class="key"/>
</g>
<g transform="translate(126, 156)" class="key keypos-41">
<rect rx="6" ry="6" x="-12" y="-12" width="24" height="24" class="key"/>
</g>
<g transform="translate(154, 156)" class="key keypos-42">
<rect rx="6" ry="6" x="-12" y="-12" width="24" height="24" class="key"/>
</g>
<g transform="translate(219, 156)" class="key keypos-43">
<rect rx="6" ry="6" x="-12" y="-12" width="24" height="24" class="key"/>
</g>
<g transform="translate(247, 156)" class="key keypos-44">
<rect rx="6" ry="6" x="-12" y="-12" width="24" height="24" class="key"/>
</g>
<g transform="translate(275, 156)" class="key keypos-45">
<rect rx="6" ry="6" x="-12" y="-12" width="24" height="24" class="key"/>
</g>
<g transform="translate(303, 156)" class="key keypos-46">
<rect rx="6" ry="6" x="-12" y="-12" width="24" height="24" class="key"/>
</g>
<g transform="translate(331, 156)" class="key keypos-47">
<rect rx="6" ry="6" x="-12" y="-12" width="24" height="24" class="key"/>
</g>
<g transform="translate(359, 156)" class="key held keypos-48">
<rect rx="6" ry="6" x="-12" y="-12" width="24" height="24" class="key held"/>
</g>
<g transform="translate(98, 192)" class="key keypos-49">
<rect rx="6" ry="6" x="-12" y="-12" width="24" height="24" class="key"/>
</g>
<g transform="translate(126, 192)" class="key keypos-50">
<rect rx="6" ry="6" x="-12" y="-12" width="24" height="24" class="key"/>
</g>
<g transform="translate(247, 192)" class="key keypos-51">
<rect rx="6" ry="6" x="-12" y="-12" width="24" height="24" class="key"/>
</g>
<g transform="translate(275, 192)" class="key keypos-52">
<rect rx="6" ry="6" x="-12" y="-12" width="24" height="24" class="key"/>
</g>
</g>
<text x="791.0" y="1343.0" class="footer">Created with <a href="https://github.com/caksoylar/keymap-drawer">keymap-drawer</a></text></svg>
